<svg xmlns="http://www.w3.org/2000/svg" width="760" height="304" viewBox="0 0 760 304" role="img"><style>
  text { font-family: -apple-system, BlinkMacSystemFont, "Segoe UI", sans-serif; }
  .fg { fill: #111827 } .mut { fill: #6b7280 } .grid { stroke: #e5e7eb }
  .track { fill: #f3f4f6 }
  @media (prefers-color-scheme: dark) {
    .fg { fill: #e5e7eb } .mut { fill: #9ca3af } .grid { stroke: #374151 }
    .track { fill: #1f2937 }
  }
</style><text x="24" y="26" class="fg" font-size="15" font-weight="600">오답 유형 분포 — 심각도별</text><text x="164" y="63" text-anchor="end" class="fg" font-size="13" font-weight="400">GPT-4.1</text><rect x="174.0" y="51" width="368.3" height="16" fill="#16a34a"/><rect x="542.3" y="51" width="109.9" height="16" fill="#fbbf24"/><rect x="652.2" y="51" width="11.9" height="16" fill="#f97316"/><rect x="664.1" y="51" width="5.9" height="16" fill="#a78bfa"/><rect x="670.1" y="51" width="3.0" height="16" fill="#db2777"/><rect x="673.0" y="51" width="3.0" height="16" fill="#dc2626"/><text x="164" y="103" text-anchor="end" class="fg" font-size="13" font-weight="400">base + few-shot</text><rect x="174.0" y="91" width="213.9" height="16" fill="#16a34a"/><rect x="387.9" y="91" width="199.0" height="16" fill="#fbbf24"/><rect x="586.9" y="91" width="56.4" height="16" fill="#f97316"/><rect x="643.3" y="91" width="8.9" height="16" fill="#a78bfa"/><rect x="652.2" y="91" width="20.8" height="16" fill="#db2777"/><rect x="673.0" y="91" width="3.0" height="16" fill="#dc2626"/><text x="164" y="143" text-anchor="end" class="fg" font-size="13" font-weight="600">파인튜닝</text><rect x="174.0" y="131" width="436.7" height="16" fill="#16a34a"/><rect x="610.7" y="131" width="53.5" height="16" fill="#fbbf24"/><rect x="664.1" y="131" width="8.9" height="16" fill="#f97316"/><rect x="673.0" y="131" width="3.0" height="16" fill="#db2777"/><text x="164" y="183" text-anchor="end" class="fg" font-size="13" font-weight="400">파인튜닝 (Ollama)</text><rect x="174.0" y="171" width="398.0" height="16" fill="#16a34a"/><rect x="572.0" y="171" width="68.3" height="16" fill="#fbbf24"/><rect x="640.4" y="171" width="17.8" height="16" fill="#f97316"/><rect x="658.2" y="171" width="11.9" height="16" fill="#a78bfa"/><rect x="670.1" y="171" width="5.9" height="16" fill="#dc2626"/><text x="164" y="223" text-anchor="end" class="fg" font-size="13" font-weight="400">파인튜닝 (CPU-only)</text><rect x="174.0" y="211" width="395.1" height="16" fill="#16a34a"/><rect x="569.1" y="211" width="71.3" height="16" fill="#fbbf24"/><rect x="640.4" y="211" width="17.8" height="16" fill="#f97316"/><rect x="658.2" y="211" width="11.9" height="16" fill="#a78bfa"/><rect x="670.1" y="211" width="5.9" height="16" fill="#dc2626"/><rect x="174" y="260" width="10" height="10" rx="2" fill="#16a34a"/><text x="188" y="269" class="mut" font-size="11">완전 일치</text><rect x="251" y="260" width="10" height="10" rx="2" fill="#fbbf24"/><text x="265" y="269" class="mut" font-size="11">파라미터 오류</text><rect x="350" y="260" width="10" height="10" rx="2" fill="#f97316"/><text x="364" y="269" class="mut" font-size="11">툴 오류</text><rect x="416" y="260" width="10" height="10" rx="2" fill="#a78bfa"/><text x="430" y="269" class="mut" font-size="11">과잉 거절</text><rect x="493" y="260" width="10" height="10" rx="2" fill="#db2777"/><text x="507" y="269" class="mut" font-size="11">놓친 거절</text><rect x="570" y="260" width="10" height="10" rx="2" fill="#dc2626"/><text x="584" y="269" class="mut" font-size="11">스키마 위반</text></svg>
